<?xml version="1.0" encoding="UTF-8"?>
<svg fill="none" original_string_length="1200" version="1.0" viewBox="65 64 372 372" xmlns="http://www.w3.org/2000/svg" zoomAndPan="magnify">
<path d="m251 436c102.72 0 186-83.275 186-186s-83.275-186-186-186-186 83.275-186 186 83.275 186 186 186zm-34.577-153.94c-4.684 4.668-12.261 4.668-16.944 0l-32.425-32.324c-3.946-3.934-8.969-5.901-15.067-5.901-6.099 0-11.122 1.967-15.068 5.901s-5.919 8.94-5.919 15.02 1.973 11.087 5.919 15.021l55.964 55.79c4.305 4.291 9.328 6.437 15.068 6.437s10.762-2.146 15.067-6.437l142.06-141.62c3.946-3.934 5.919-8.941 5.919-15.021 0-6.079-1.973-11.086-5.919-15.02-3.947-3.934-8.969-5.901-15.068-5.901-6.098 0-11.121 1.967-15.067 5.901l-118.52 118.16z" clip-rule="evenodd" fill="#53361c" fill-rule="evenodd"/>
</svg>
